<svg width="20" height="19" viewBox="0 0 20 19" fill="none" xmlns="http://www.w3.org/2000/svg">
<g clip-path="url(#clip0_281_689)">
<path d="M18.4852 2.99561H15.9497C15.7873 2.99564 15.6284 3.03983 15.4934 3.12258C15.3583 3.20534 15.253 3.32295 15.1908 3.46055C15.1287 3.59815 15.1124 3.74956 15.1441 3.89563C15.1758 4.0417 15.254 4.17588 15.3689 4.28121L16.2611 5.09912L13.3148 7.79912C13.1583 7.93626 12.9501 8.0128 12.7336 8.0128C12.517 8.0128 12.3088 7.93626 12.1523 7.79912L12.0126 7.67033C11.5431 7.25917 10.9188 7.02973 10.2696 7.02973C9.62027 7.02973 8.99598 7.25917 8.52653 7.67033L4.33634 11.5113C4.18195 11.6533 4.0954 11.8456 4.0957 12.046C4.09601 12.2464 4.18316 12.4385 4.33798 12.58C4.4928 12.7216 4.70261 12.8009 4.92125 12.8006C5.13989 12.8003 5.34946 12.7205 5.50384 12.5785L9.69403 8.73753C9.85047 8.60022 10.0587 8.52356 10.2753 8.52356C10.4919 8.52356 10.7002 8.60022 10.8566 8.73753L10.9963 8.86632C11.4659 9.27713 12.0901 9.50634 12.7393 9.50634C13.3885 9.50634 14.0127 9.27713 14.4823 8.86632L17.4286 6.16556L18.3209 6.98347C18.4362 7.08707 18.5822 7.15723 18.7407 7.1852C18.8993 7.21317 19.0633 7.1977 19.2123 7.14074C19.3613 7.08378 19.4887 6.98784 19.5785 6.8649C19.6684 6.74196 19.7168 6.59748 19.7176 6.4495V4.12531C19.7176 3.8257 19.5878 3.53835 19.3566 3.32649C19.1255 3.11463 18.8121 2.99561 18.4852 2.99561Z" fill="white"/>
<path d="M18.8969 16.5515H4.10803C3.45432 16.5515 2.82738 16.3134 2.36514 15.8897C1.9029 15.466 1.64321 14.8913 1.64321 14.292V0.753626C1.64321 0.553882 1.55665 0.362318 1.40257 0.221077C1.24849 0.0798365 1.03951 0.000488281 0.821605 0.000488281C0.603702 0.000488281 0.394723 0.0798365 0.240643 0.221077C0.0865617 0.362318 0 0.553882 0 0.753626L0 14.292C0.00130459 15.2904 0.434532 16.2475 1.20465 16.9535C1.97478 17.6594 3.01891 18.0565 4.10803 18.0577H18.8969C19.1148 18.0577 19.3238 17.9784 19.4779 17.8371C19.632 17.6959 19.7185 17.5043 19.7185 17.3046C19.7185 17.1048 19.632 16.9133 19.4779 16.772C19.3238 16.6308 19.1148 16.5515 18.8969 16.5515Z" fill="white"/>
</g>
<defs>
<clipPath id="clip0_281_689">
<rect width="19.7185" height="18.0753" fill="white"/>
</clipPath>
</defs>
</svg>
