<svg width="17" height="19" viewBox="0 0 17 19" fill="none" xmlns="http://www.w3.org/2000/svg">
<path d="M8.17333 18.0753L7.88248 17.9571C7.55877 17.8268 0 14.6975 0 9.03088V4.11741C0.000288176 3.64456 0.163321 3.18386 0.465883 2.8009C0.768444 2.41794 1.19511 2.13225 1.68511 1.98452L8.21605 0L14.747 1.98452C15.237 2.13225 15.6637 2.41794 15.9662 2.8009C16.2688 3.18386 16.4318 3.64456 16.4321 4.11741V9.03088C16.4321 15.4905 8.80103 17.884 8.47568 17.9834L8.17333 18.0753ZM8.21605 1.57933L2.20519 3.40644C2.04164 3.45541 1.8992 3.55056 1.79825 3.67827C1.6973 3.80598 1.64303 3.9597 1.64321 4.11741V9.03088C1.64321 13.1686 6.93435 15.8528 8.25467 16.4576C9.57252 15.9718 14.7889 13.7478 14.7889 9.03088V4.11741C14.7891 3.9597 14.7348 3.80598 14.6339 3.67827C14.5329 3.55056 14.3905 3.45541 14.2269 3.40644L8.21605 1.57933Z" fill="white"/>
<path d="M7.48577 10.9443H7.45866C7.25071 10.9414 7.04556 10.8999 6.85562 10.8222C6.66568 10.7445 6.4949 10.6323 6.3536 10.4924L4.45898 8.6849L5.64292 7.64406L7.4866 9.40641L11.7433 5.50439L12.9051 6.56933L8.58262 10.5316C8.43865 10.6635 8.26757 10.7678 8.0793 10.8387C7.89102 10.9095 7.68929 10.9454 7.48577 10.9443Z" fill="white"/>
</svg>
