<svg width="20" height="19" viewBox="0 0 20 19" fill="none" xmlns="http://www.w3.org/2000/svg">
<g filter="url(#filter0_d_281_716)">
<path d="M18.9963 6.81411L12.7645 1.10081C11.9932 0.395861 10.9484 0 9.85927 0C8.7701 0 7.72536 0.395861 6.95408 1.10081L0.722201 6.81411C0.492501 7.02332 0.310388 7.27224 0.186418 7.54645C0.0624479 7.82066 -0.000912311 8.1147 9.92457e-06 8.41152V15.8051C9.92457e-06 16.4043 0.259695 16.979 0.721938 17.4027C1.18418 17.8264 1.81112 18.0645 2.46483 18.0645H17.2537C17.9074 18.0645 18.5344 17.8264 18.9966 17.4027C19.4588 16.979 19.7185 16.4043 19.7185 15.8051V8.41152C19.7195 8.1147 19.6561 7.82066 19.5321 7.54645C19.4082 7.27224 19.226 7.02332 18.9963 6.81411ZM12.3241 16.5582H7.39446V13.5954C7.39446 12.9961 7.65414 12.4214 8.11638 11.9977C8.57863 11.574 9.20556 11.336 9.85927 11.336C10.513 11.336 11.1399 11.574 11.6022 11.9977C12.0644 12.4214 12.3241 12.9961 12.3241 13.5954V16.5582ZM18.0753 15.8051C18.0753 16.0048 17.9888 16.1964 17.8347 16.3376C17.6806 16.4789 17.4716 16.5582 17.2537 16.5582H13.9673V13.5954C13.9673 12.5966 13.5345 11.6388 12.7641 10.9326C11.9937 10.2264 10.9488 9.82968 9.85927 9.82968C8.76976 9.82968 7.72486 10.2264 6.95446 10.9326C6.18406 11.6388 5.75125 12.5966 5.75125 13.5954V16.5582H2.46483C2.24692 16.5582 2.03794 16.4789 1.88386 16.3376C1.72978 16.1964 1.64322 16.0048 1.64322 15.8051V8.41152C1.64398 8.21192 1.73047 8.02063 1.88395 7.87905L8.11583 2.168C8.57897 1.74544 9.20582 1.50821 9.85927 1.50821C10.5127 1.50821 11.1396 1.74544 11.6027 2.168L17.8346 7.88131C17.9875 8.02233 18.0739 8.2127 18.0753 8.41152V15.8051Z" fill="#EC712A"/>
</g>
<defs>
<filter id="filter0_d_281_716" x="-4" y="0" width="27.7188" height="26.0645" filterUnits="userSpaceOnUse" color-interpolation-filters="sRGB">
<feFlood flood-opacity="0" result="BackgroundImageFix"/>
<feColorMatrix in="SourceAlpha" type="matrix" values="0 0 0 0 0 0 0 0 0 0 0 0 0 0 0 0 0 0 127 0" result="hardAlpha"/>
<feOffset dy="4"/>
<feGaussianBlur stdDeviation="2"/>
<feComposite in2="hardAlpha" operator="out"/>
<feColorMatrix type="matrix" values="0 0 0 0 0 0 0 0 0 0 0 0 0 0 0 0 0 0 0.25 0"/>
<feBlend mode="normal" in2="BackgroundImageFix" result="effect1_dropShadow_281_716"/>
<feBlend mode="normal" in="SourceGraphic" in2="effect1_dropShadow_281_716" result="shape"/>
</filter>
</defs>
</svg>
