<svg width="20" height="19" viewBox="0 0 20 19" fill="none" xmlns="http://www.w3.org/2000/svg">
<path d="M19.7185 9.79079V8.28452H15.5513C15.4858 7.8657 15.365 7.45575 15.1915 7.06368L18.8 5.13791L17.9734 3.83649L14.3633 5.76301C14.0873 5.44496 13.7725 5.1569 13.425 4.90444L15.5201 1.60192L14.1004 0.844268L12.0053 4.14678C11.5799 3.98916 11.1351 3.87941 10.6809 3.81992V0H9.03766V3.81992C8.58695 3.87865 8.14559 3.98687 7.72309 4.14226L5.63128 0.844268L4.21155 1.60192L6.30253 4.8954C5.95322 5.1489 5.637 5.43851 5.36015 5.75849L1.75824 3.83649L0.9317 5.13791L4.52951 7.05766C4.35442 7.45148 4.23274 7.86352 4.16718 8.28452H0V9.79079H4.16718C4.23279 10.2098 4.35363 10.62 4.52704 11.0124L0.937451 12.9276L1.76399 14.2298L5.35604 12.3123C5.62916 12.6277 5.94065 12.9135 6.28446 13.1641L4.19019 16.4674L5.61074 17.225L7.70419 13.9248C8.13235 14.0843 8.58015 14.1953 9.03766 14.2554V18.0753H10.6809V14.2554C11.1428 14.1947 11.5948 14.0822 12.0267 13.9203L14.1234 17.225L15.5431 16.4674L13.4431 13.1573C13.7852 12.907 14.0953 12.622 14.3674 12.3078L17.9685 14.2298L18.7901 12.9276L15.1898 11.0064C15.3635 10.616 15.4848 10.2079 15.5513 9.79079H19.7185ZM13.9673 9.03766C13.7948 14.0144 5.92295 14.0129 5.75124 9.03766C5.92377 4.06092 13.7956 4.06243 13.9673 9.03766Z" fill="white"/>
</svg>
