<svg width="21" height="19" viewBox="0 0 21 19" fill="none" xmlns="http://www.w3.org/2000/svg">
<path d="M18.1364 1.58333H15.5455V0H13.8182V1.58333H6.90909V0H5.18182V1.58333H2.59091C1.90376 1.58333 1.24475 1.83356 0.75886 2.27895C0.27297 2.72435 0 3.32844 0 3.95833L0 19H20.7273V3.95833C20.7273 3.32844 20.4543 2.72435 19.9684 2.27895C19.4825 1.83356 18.8235 1.58333 18.1364 1.58333ZM1.72727 3.95833C1.72727 3.74837 1.81826 3.54701 1.98023 3.39854C2.14219 3.25007 2.36186 3.16667 2.59091 3.16667H18.1364C18.3654 3.16667 18.5851 3.25007 18.747 3.39854C18.909 3.54701 19 3.74837 19 3.95833V6.33333H1.72727V3.95833ZM1.72727 17.4167V7.91667H19V17.4167H1.72727Z" fill="white"/>
<path d="M14.6824 10.2915H12.9551V11.8748H14.6824V10.2915Z" fill="white"/>
<path d="M11.2273 10.2915H9.5V11.8748H11.2273V10.2915Z" fill="white"/>
<path d="M7.77219 10.2915H6.04492V11.8748H7.77219V10.2915Z" fill="white"/>
<path d="M14.6824 13.4585H12.9551V15.0418H14.6824V13.4585Z" fill="white"/>
<path d="M11.2273 13.4585H9.5V15.0418H11.2273V13.4585Z" fill="white"/>
<path d="M7.77219 13.4585H6.04492V15.0418H7.77219V13.4585Z" fill="white"/>
</svg>
