<svg width="20" height="14" viewBox="0 0 20 14" fill="none" xmlns="http://www.w3.org/2000/svg">
<path d="M19.7192 0.75293H5.75195V2.2592H19.7192V0.75293Z" fill="white"/>
<path d="M19.7192 6.0249H5.75195V7.53119H19.7192V6.0249Z" fill="white"/>
<path d="M19.7192 11.2969H5.75195V12.8032H19.7192V11.2969Z" fill="white"/>
<path d="M1.64321 3.01255C2.55073 3.01255 3.28642 2.33817 3.28642 1.50627C3.28642 0.674382 2.55073 0 1.64321 0C0.73569 0 0 0.674382 0 1.50627C0 2.33817 0.73569 3.01255 1.64321 3.01255Z" fill="white"/>
<path d="M1.64321 8.28452C2.55073 8.28452 3.28642 7.61014 3.28642 6.77825C3.28642 5.94635 2.55073 5.27197 1.64321 5.27197C0.73569 5.27197 0 5.94635 0 6.77825C0 7.61014 0.73569 8.28452 1.64321 8.28452Z" fill="white"/>
<path d="M1.64321 13.5565C2.55073 13.5565 3.28642 12.8821 3.28642 12.0502C3.28642 11.2183 2.55073 10.5439 1.64321 10.5439C0.73569 10.5439 0 11.2183 0 12.0502C0 12.8821 0.73569 13.5565 1.64321 13.5565Z" fill="white"/>
</svg>
